<?xml version="1.0" standalone="no"?>
<!DOCTYPE svg PUBLIC "-//W3C//DTD SVG 20010904//EN"
 "http://www.w3.org/TR/2001/REC-SVG-20010904/DTD/svg10.dtd">
<svg version="1.0" xmlns="http://www.w3.org/2000/svg"
 width="1280.000000pt" height="1090.000000pt" viewBox="0 0 1280.000000 1090.000000"
 preserveAspectRatio="xMidYMid meet">
<g transform="translate(0.000000,1090.000000) scale(0.100000,-0.100000)"
fill="#000000" stroke="none">
<path d="M6277 10879 c-76 -10 -184 -30 -240 -42 -98 -23 -104 -23 -187 -8
-63 11 -157 15 -360 15 -244 0 -290 -2 -405 -23 -148 -26 -268 -56 -423 -105
-99 -31 -113 -33 -177 -25 -117 14 -440 10 -575 -6 -462 -57 -912 -251 -1255
-540 -33 -28 -68 -57 -79 -65 -14 -11 -44 -14 -120 -12 -126 4 -218 -18 -348
-83 -204 -101 -394 -250 -633 -496 -273 -281 -509 -510 -582 -568 -40 -31
-102 -78 -139 -106 -174 -131 -349 -397 -464 -705 -24 -63 -74 -172 -112 -241
-38 -69 -85 -170 -105 -225 -32 -88 -36 -112 -41 -220 -5 -137 6 -185 59 -270
l31 -48 -36 -72 c-40 -79 -86 -242 -86 -303 0 -54 43 -243 75 -326 57 -153
174 -342 303 -494 80 -92 80 -94 105 -196 57 -232 157 -411 323 -580 284 -290
713 -491 1289 -605 61 -12 115 -26 120 -30 6 -5 17 -26 24 -47 20 -56 70 -129
138 -203 58 -62 61 -69 72 -137 6 -39 15 -83 21 -98 5 -14 10 -69 10 -120 0
-110 13 -151 75 -240 75 -106 149 -169 350 -295 71 -45 166 -110 210 -144 357
-279 724 -443 1149 -516 153 -26 763 -39 931 -20 130 14 419 61 559 90 148 30
134 37 200 -96 109 -219 287 -449 442 -574 136 -110 148 -124 271 -332 252
-424 540 -958 627 -1163 120 -283 223 -422 381 -517 82 -49 205 -92 247 -85
89 13 195 39 215 52 59 39 72 147 34 292 -11 45 -64 204 -116 354 -101 287
-118 355 -93 364 8 3 61 -5 119 -19 234 -55 313 -66 482 -66 89 0 200 -4 247
-10 320 -35 422 -32 689 21 374 75 609 146 803 243 338 170 590 435 644 676
13 56 26 81 67 132 65 82 83 125 104 244 16 96 16 102 -4 193 -12 52 -19 99
-17 106 4 8 57 14 173 19 267 10 445 49 637 140 383 181 652 556 789 1096 61
242 109 654 102 883 -17 556 -63 1001 -133 1282 -58 233 -152 451 -244 563
-43 53 -58 82 -92 185 -107 324 -290 605 -472 725 -39 26 -76 58 -83 72 -7 14
-13 52 -13 86 0 159 -76 399 -180 570 -135 221 -376 455 -621 601 -77 47 -79
49 -99 108 -30 91 -82 171 -182 281 -50 54 -129 151 -176 214 -100 135 -303
340 -420 425 -342 248 -749 429 -1227 545 -99 24 -227 64 -305 95 -336 133
-595 186 -941 190 l-205 3 -70 35 c-308 154 -721 223 -1057 176z m563 -73
c180 -36 358 -96 345 -116 -3 -5 -18 -10 -33 -10 -40 0 -167 -37 -231 -67 -37
-18 -88 -58 -149 -117 -104 -102 -179 -156 -218 -159 -23 -2 -33 8 -70 69 -68
110 -210 241 -326 299 -51 25 -97 51 -103 56 -20 19 31 34 215 60 97 13 475 3
570 -15z m-1222 -24 c2 -7 -12 -19 -35 -28 -60 -25 -155 -74 -180 -94 -12 -9
-55 -55 -94 -101 -40 -46 -77 -85 -83 -87 -6 -1 -46 33 -89 77 -89 92 -136
118 -231 128 -38 5 -71 13 -73 20 -4 12 108 41 267 68 186 32 509 43 518 17z
m366 -89 c121 -30 266 -120 360 -225 44 -49 76 -102 150 -253 88 -179 108
-210 175 -263 20 -16 22 -21 12 -40 -19 -36 -170 -222 -180 -222 -5 0 -12 14
-15 30 -20 105 0 82 -291 315 -161 128 -301 215 -348 215 -14 0 -44 -48 -35
-55 2 -1 44 -23 93 -48 51 -27 133 -82 191 -129 55 -46 146 -119 203 -163 61
-48 104 -89 108 -103 7 -30 -11 -94 -44 -151 -14 -24 -98 -118 -188 -210 -90
-92 -181 -195 -204 -230 -48 -75 -111 -232 -142 -353 -14 -57 -26 -88 -35 -88
-8 0 -43 44 -79 99 -87 131 -272 361 -291 361 -37 0 -22 -34 63 -142 146 -187
233 -312 233 -336 0 -16 -16 -15 -81 4 -72 22 -157 65 -253 131 -70 47 -81 52
-94 39 -20 -20 -10 -31 81 -94 84 -57 159 -97 236 -123 76 -26 97 -43 122 -92
12 -23 31 -53 44 -67 16 -18 24 -43 29 -90 4 -36 14 -116 23 -178 8 -62 13
-116 9 -119 -15 -15 -61 50 -114 159 -39 82 -62 117 -72 115 -45 -9 24 -173
133 -317 35 -47 72 -101 82 -120 30 -57 70 -92 100 -84 14 3 25 13 25 23 0 9
-18 75 -39 146 -53 177 -72 307 -73 495 0 168 14 251 68 400 58 162 87 205
243 363 141 143 149 150 271 214 69 36 170 92 225 123 186 107 444 248 463
254 31 10 173 -40 242 -85 107 -69 220 -159 220 -175 0 -22 -23 -63 -128 -229
-184 -293 -378 -525 -437 -525 -24 0 -134 55 -302 151 -106 62 -127 68 -136
45 -9 -23 35 -53 273 -181 69 -37 129 -75 135 -84 5 -9 27 -56 49 -106 49
-114 50 -164 7 -338 -34 -137 -54 -338 -39 -393 11 -42 51 -99 68 -99 23 0 22
28 -2 81 -22 47 -23 58 -16 158 4 67 21 164 44 258 43 178 42 216 -12 350 -20
49 -35 91 -33 93 2 2 45 46 95 97 138 142 298 363 439 606 55 95 62 102 91
102 17 0 98 16 180 35 308 72 365 79 639 79 241 0 254 -1 350 -27 119 -32 232
-85 429 -202 222 -131 270 -151 442 -185 149 -29 257 -61 330 -97 22 -11 82
-41 135 -67 198 -98 453 -322 699 -616 57 -69 157 -186 221 -261 64 -74 157
-190 206 -256 92 -121 146 -177 167 -170 6 2 15 16 20 30 9 24 6 31 -21 55
-17 15 -66 74 -109 132 -70 95 -230 288 -479 579 -117 137 -301 319 -404 401
-45 36 -132 95 -194 132 -61 37 -125 75 -142 85 -28 17 -30 23 -35 93 -3 41
-15 100 -25 130 -39 108 -202 242 -481 394 -163 89 -281 137 -467 191 -168 48
-339 113 -602 227 -149 65 -164 69 -215 65 -69 -6 -176 -50 -276 -112 -136
-85 -146 -101 -205 -318 -17 -65 -41 -132 -53 -150 -22 -32 -22 -32 -116 -35
l-95 -3 -100 72 c-180 128 -228 143 -545 174 -85 9 -159 20 -164 25 -11 11 7
40 74 113 112 123 207 170 440 217 85 18 159 36 164 41 24 22 -15 21 -145 -4
-269 -53 -343 -90 -493 -249 -57 -60 -109 -108 -118 -108 -31 0 -67 42 -112
133 -25 50 -46 97 -46 103 0 7 32 30 70 53 39 23 118 88 178 144 87 84 120
108 177 132 l70 30 315 -3 c337 -3 489 -12 640 -38 146 -25 330 -79 495 -144
93 -37 220 -77 335 -106 533 -132 977 -340 1297 -607 118 -99 217 -205 318
-341 46 -63 116 -149 157 -192 122 -131 176 -216 202 -316 12 -49 16 -53 84
-92 126 -72 253 -168 369 -280 275 -264 400 -511 438 -863 7 -73 16 -137 19
-142 4 -5 37 -26 74 -47 85 -47 189 -152 266 -268 94 -143 198 -372 236 -523
6 -25 32 -68 65 -108 180 -220 297 -633 340 -1201 20 -259 20 -354 1 -354 -13
0 -79 125 -151 287 l-28 63 17 144 c30 273 16 559 -33 672 -20 45 -212 224
-240 224 -9 0 -42 40 -73 89 -69 107 -164 233 -413 546 -397 500 -445 570
-525 769 -93 228 -166 343 -305 474 -131 125 -262 195 -460 247 -125 33 -280
43 -417 25 -54 -7 -101 -10 -105 -7 -3 3 -9 37 -13 75 -10 94 -45 144 -207
303 -125 122 -273 246 -582 490 -145 113 -186 135 -186 98 0 -10 122 -114 280
-241 405 -325 565 -474 623 -581 52 -94 0 -254 -132 -409 -62 -72 -65 -78 -49
-94 16 -16 21 -13 74 44 32 34 77 94 100 134 23 40 49 81 57 90 19 22 131 47
245 54 193 13 459 -62 624 -174 310 -211 469 -568 598 -1347 44 -264 60 -330
126 -521 48 -137 51 -152 46 -215 -24 -290 -176 -489 -590 -770 -172 -117
-216 -165 -336 -369 -177 -299 -228 -367 -431 -571 -110 -110 -174 -165 -268
-228 -84 -58 -143 -107 -189 -158 -62 -69 -65 -75 -50 -91 16 -15 23 -11 105
70 48 47 123 109 167 138 247 163 470 410 666 737 171 287 191 310 376 434
270 181 444 351 525 514 41 81 59 143 73 258 l13 108 -45 127 c-73 207 -91
275 -123 471 -17 102 -44 255 -60 340 -17 85 -30 158 -30 163 0 34 63 -38 320
-364 350 -443 448 -576 491 -663 32 -65 32 -66 26 -178 -7 -119 -32 -254 -67
-352 -28 -78 -70 -278 -70 -332 0 -57 16 -95 38 -91 14 3 17 16 19 81 2 96 25
211 67 342 39 119 54 194 65 333 4 57 13 108 18 113 6 6 32 -10 74 -47 131
-117 144 -158 143 -469 0 -181 -4 -247 -23 -370 -28 -176 -29 -292 -6 -393 15
-65 19 -72 41 -72 27 0 28 6 13 69 -15 66 -27 164 -22 179 3 6 9 12 15 12 11
0 126 -240 175 -365 l35 -90 -5 -220 c-8 -312 -49 -567 -134 -830 -67 -208
-96 -251 -117 -176 -6 19 -50 77 -107 139 -54 59 -99 111 -99 116 0 4 22 34
48 65 66 76 99 127 172 259 33 62 83 147 111 189 51 79 56 98 23 98 -24 0 -95
-102 -171 -245 -31 -58 -75 -132 -97 -165 -46 -69 -143 -175 -161 -175 -8 0
-14 42 -19 143 -12 240 -89 547 -186 737 -13 25 -18 46 -13 51 5 5 96 24 202
43 187 32 220 43 207 65 -11 18 -66 13 -259 -21 -167 -30 -199 -32 -387 -31
-113 0 -218 5 -235 10 -28 9 -34 20 -76 139 -49 140 -106 260 -177 369 -85
133 -123 169 -138 132 -3 -8 30 -65 72 -128 83 -122 148 -251 190 -376 78
-232 89 -420 50 -833 -43 -457 -43 -440 -6 -440 15 0 19 11 24 62 3 35 16 169
28 298 17 173 23 299 23 475 l0 240 230 -3 c126 -2 232 -6 235 -9 2 -2 -8 -14
-23 -26 l-27 -22 36 -80 c44 -101 97 -267 126 -398 19 -83 23 -131 23 -262 0
-101 -5 -176 -13 -203 -7 -23 -45 -90 -85 -148 -119 -173 -112 -156 -111 -269
0 -55 2 -143 3 -195 2 -70 -2 -118 -18 -181 -11 -48 -22 -103 -24 -123 -3 -20
-6 -39 -9 -41 -3 -3 -43 -18 -90 -34 -145 -51 -266 -71 -460 -78 -201 -7 -209
-4 -164 62 48 70 44 141 -14 254 -39 76 -57 94 -190 199 -63 49 -158 134 -210
188 -106 110 -230 261 -230 281 0 7 50 38 110 68 175 88 508 290 539 328 11
14 11 20 1 32 -11 14 -16 13 -44 -5 -157 -103 -390 -243 -476 -286 -316 -158
-648 -232 -920 -206 -88 9 -125 9 -138 1 -14 -9 -31 -6 -77 14 -73 30 -161 44
-685 102 -492 55 -622 64 -765 55 -491 -33 -501 -33 -597 -22 -81 9 -117 19
-213 61 -64 28 -130 51 -147 51 -37 0 -130 -46 -278 -139 -234 -147 -309 -171
-540 -171 -161 0 -275 14 -470 60 -212 49 -254 43 -408 -58 -144 -95 -180
-106 -347 -106 -77 -1 -167 1 -200 4 -56 5 -60 4 -63 -17 -5 -31 38 -38 243
-38 204 0 225 6 382 104 167 105 179 107 366 62 230 -55 307 -64 524 -59 263
6 270 8 593 205 63 38 136 78 161 87 l46 18 116 -51 c64 -28 145 -55 179 -61
88 -14 261 -12 473 5 270 22 364 19 779 -25 668 -71 760 -85 842 -125 85 -42
168 -119 200 -189 21 -44 24 -66 24 -164 0 -112 0 -113 23 -110 21 3 22 7 25
121 2 107 0 124 -21 170 -13 29 -43 74 -66 101 -23 26 -40 50 -37 53 2 3 89 6
193 7 204 3 292 16 488 76 55 16 105 30 111 30 6 0 50 -50 98 -110 132 -166
225 -259 375 -379 75 -59 141 -114 147 -122 30 -37 68 -126 72 -169 6 -70 -3
-95 -45 -122 -37 -22 -45 -23 -268 -23 -176 0 -253 5 -330 18 -55 10 -192 25
-305 32 -251 18 -457 39 -655 66 -135 19 -178 20 -425 14 -307 -7 -350 -3
-646 61 -360 77 -471 85 -934 64 -237 -11 -366 -11 -655 -2 -492 16 -656 2
-896 -78 -137 -46 -431 -104 -689 -136 -136 -17 -664 -19 -840 -4 -267 24
-536 102 -795 230 -183 90 -335 185 -335 207 0 10 6 13 18 8 204 -79 408 -83
648 -14 l70 21 150 -47 c184 -59 289 -111 370 -188 61 -57 92 -68 102 -39 5
17 -77 97 -154 149 -74 50 -123 72 -255 113 -335 103 -475 193 -555 356 -63
127 -57 279 18 499 32 93 153 374 166 387 5 5 39 17 78 28 58 16 89 18 194 13
l125 -6 218 54 c236 58 237 58 237 -3 0 -44 32 -116 109 -251 l71 -124 0 -107
c0 -126 8 -139 106 -175 62 -24 192 -56 199 -50 2 2 5 17 7 34 3 29 2 30 -87
56 -153 46 -141 36 -148 125 -4 42 -7 92 -7 110 0 21 -21 69 -62 141 -75 132
-118 222 -118 246 0 11 37 61 83 113 61 69 90 95 113 100 17 3 140 -9 275 -26
134 -17 303 -34 375 -37 174 -8 202 1 546 176 267 136 395 191 443 191 13 0
70 -12 127 -26 137 -34 295 -40 638 -24 154 7 276 8 281 3 4 -4 20 -49 34 -98
29 -99 59 -157 112 -216 66 -73 98 -37 34 38 -45 54 -82 131 -101 211 -16 67
-7 77 63 76 65 -2 133 -29 262 -104 201 -118 320 -136 682 -104 l71 7 47 -64
c26 -35 61 -93 78 -129 17 -36 31 -66 32 -68 2 -2 14 0 29 4 50 12 30 79 -68
225 -31 46 -56 92 -56 101 0 19 189 228 287 318 34 32 118 88 198 133 76 44
216 130 312 193 157 103 189 129 326 266 226 226 274 296 363 526 68 177 105
252 123 252 9 0 41 -15 71 -33 30 -18 108 -61 172 -95 69 -38 157 -95 215
-142 53 -44 100 -80 104 -80 4 0 12 7 19 15 10 12 6 20 -22 46 -91 85 -180
147 -315 221 -160 86 -213 122 -213 142 0 7 32 66 71 132 152 254 195 377 169
484 -7 31 -65 139 -152 286 -77 131 -152 263 -168 293 -43 85 -53 95 -83 87
-15 -3 -27 -13 -27 -22 0 -23 41 -100 185 -344 174 -295 175 -298 175 -364 0
-82 -34 -163 -154 -364 -120 -203 -168 -301 -255 -523 -75 -192 -127 -264
-337 -469 -125 -122 -175 -163 -309 -252 -88 -58 -214 -136 -280 -174 -190
-107 -223 -133 -364 -286 -160 -173 -217 -227 -251 -240 -44 -17 -258 -28
-345 -19 -108 13 -173 37 -308 114 -62 35 -134 72 -162 82 -85 31 -86 35 -8
98 81 66 108 99 156 191 33 62 45 96 33 96 -2 0 -11 3 -19 6 -11 4 -27 -18
-58 -76 -60 -111 -131 -178 -254 -236 -52 -25 -120 -49 -152 -54 -91 -15 -588
-29 -688 -20 -49 4 -141 20 -203 34 -105 25 -116 25 -172 13 -98 -23 -104 4
-30 152 47 94 96 168 356 550 103 152 120 192 83 199 -11 2 -33 -25 -67 -80
-28 -46 -110 -166 -181 -268 -135 -191 -240 -366 -272 -451 -11 -27 -19 -69
-19 -94 0 -55 27 -37 -322 -213 -325 -165 -346 -171 -537 -153 -75 6 -209 22
-299 35 -150 22 -166 26 -194 52 -28 26 -78 122 -176 337 -24 51 -36 67 -51
67 -14 0 -21 -7 -21 -19 0 -20 74 -191 137 -315 19 -37 32 -74 30 -81 -3 -7
-23 -15 -45 -19 -34 -5 -51 -17 -103 -76 -70 -79 -63 -76 -334 -144 -297 -75
-318 -77 -485 -51 -299 45 -467 183 -604 497 -20 48 -28 56 -45 51 -12 -3 -21
-12 -21 -20 0 -7 20 -58 45 -112 41 -90 54 -131 40 -131 -3 0 -59 29 -123 64
-206 112 -284 148 -295 137 -20 -20 6 -41 155 -121 84 -46 194 -107 245 -137
51 -29 98 -53 106 -53 8 0 45 -25 83 -55 38 -30 104 -73 146 -95 42 -22 80
-45 83 -51 4 -5 -11 -16 -32 -24 -89 -35 -148 -74 -207 -136 -52 -55 -80 -100
-171 -278 -97 -189 -113 -216 -152 -242 -46 -32 -48 -36 -33 -59 8 -13 14 -12
46 5 56 30 86 75 194 286 56 109 118 217 140 241 49 57 118 104 130 92 6 -6
-17 -77 -66 -197 -85 -209 -114 -326 -114 -458 0 -192 89 -343 268 -453 34
-21 62 -43 62 -48 0 -28 -216 -62 -334 -53 -110 8 -186 31 -339 101 -65 30
-130 54 -144 54 -30 0 -217 110 -324 191 -175 133 -259 279 -231 404 6 30 4
53 -9 93 -10 29 -22 84 -28 123 -6 44 -17 80 -28 93 -11 11 -46 51 -79 88 -76
84 -118 167 -111 217 3 20 17 121 31 224 50 369 55 386 144 467 132 123 497
385 872 627 247 160 348 216 456 252 275 92 541 112 839 62 233 -40 603 -14
760 52 59 24 101 53 210 142 62 51 95 71 147 86 75 23 199 31 205 13 2 -6 -30
-26 -72 -44 -141 -62 -265 -148 -432 -302 -40 -38 -80 -68 -88 -68 -8 0 -20 9
-27 20 -15 23 -31 26 -46 7 -8 -10 -6 -22 10 -48 70 -114 108 -218 108 -294 0
-22 -11 -87 -25 -145 -30 -130 -30 -130 -1 -130 23 0 26 8 51 113 34 141 31
239 -9 334 -14 34 -26 69 -26 77 0 19 211 207 308 274 85 59 165 102 244 132
92 34 287 80 341 80 89 1 305 37 568 95 140 31 306 63 369 72 215 28 495 -1
636 -66 33 -16 146 -78 250 -139 252 -147 255 -148 293 -132 34 14 123 106
147 152 16 31 13 42 -16 58 -16 9 -27 0 -75 -59 -31 -38 -63 -72 -71 -75 -18
-7 -58 13 -234 117 -136 80 -170 104 -170 117 0 4 32 34 72 66 205 166 389
354 587 604 63 80 171 202 240 273 113 115 123 129 109 143 -14 14 -22 10 -84
-44 -85 -74 -164 -162 -324 -362 -143 -180 -409 -451 -558 -568 -57 -45 -106
-82 -110 -82 -5 0 -46 11 -92 25 -138 40 -251 55 -406 55 -180 0 -236 -8 -571
-81 -149 -32 -281 -59 -292 -59 -36 0 -23 24 36 65 88 62 243 222 286 295 52
90 83 194 97 329 7 63 20 133 31 157 l18 44 -24 16 c-13 9 -29 13 -36 9 -24
-15 -49 -96 -59 -191 -22 -202 -54 -289 -150 -407 -118 -146 -344 -302 -495
-342 -42 -10 -96 -12 -232 -8 -100 3 -201 1 -230 -4 -28 -6 -57 -7 -63 -3 -8
5 -3 36 15 104 35 136 34 217 -4 288 -15 30 -56 89 -89 132 -47 59 -66 93 -83
149 -28 95 -106 260 -118 252 -11 -6 -11 -7 43 -137 54 -129 48 -137 -44 -57
-55 48 -80 55 -80 25 0 -8 61 -78 136 -157 233 -245 240 -265 183 -500 -24
-97 -39 -141 -50 -144 -9 -3 -58 -41 -110 -85 -52 -44 -117 -92 -145 -106 -72
-35 -212 -62 -399 -75 -154 -11 -167 -11 -350 16 -210 30 -381 35 -542 14 -51
-7 -96 -9 -100 -6 -3 4 -1 18 7 31 11 21 9 37 -8 108 -67 262 -119 593 -137
873 -20 301 -37 422 -74 533 -40 117 -185 426 -203 430 -7 1 -22 -4 -32 -11
-18 -13 -16 -22 59 -183 144 -311 153 -352 180 -759 12 -180 27 -305 60 -504
48 -281 51 -298 92 -434 16 -52 23 -91 17 -96 -5 -4 -54 -20 -109 -35 -125
-34 -230 -83 -399 -186 -73 -44 -139 -80 -148 -80 -31 0 -227 88 -270 121
-138 107 -263 222 -321 294 -132 165 -268 278 -512 428 -186 114 -272 175
-354 253 -38 35 -73 64 -78 64 -6 0 -18 -9 -28 -20 -18 -20 -17 -22 61 -96 77
-74 144 -121 445 -314 198 -127 262 -184 443 -395 27 -31 112 -110 190 -176
115 -97 157 -126 234 -161 65 -29 92 -47 90 -57 -3 -16 -33 -39 -303 -225 -86
-60 -225 -160 -308 -222 -172 -130 -169 -129 -310 -94 -173 44 -524 167 -632
223 -100 52 -199 148 -241 232 -46 94 -41 152 29 355 70 204 86 310 69 463
-15 139 -50 269 -112 420 -54 131 -64 143 -104 114 -17 -12 -15 -20 29 -123
26 -60 61 -161 78 -224 29 -107 31 -127 31 -285 l0 -170 -62 -180 c-61 -174
-63 -183 -59 -262 3 -68 9 -93 35 -144 18 -34 32 -66 32 -70 0 -25 -221 17
-307 57 -130 62 -354 313 -445 500 -53 111 -72 219 -65 384 8 195 17 213 197
390 81 80 160 167 175 193 30 53 30 68 -1 205 -14 62 -19 72 -38 72 -44 0 -46
-9 -29 -114 19 -116 16 -125 -71 -219 -37 -40 -60 -57 -77 -57 -39 0 -195 97
-271 169 -50 46 -78 83 -104 136 l-36 73 3 119 4 118 57 115 c101 206 264 430
361 497 65 44 171 76 356 107 200 34 211 34 211 -2 0 -45 -59 -262 -87 -316
-14 -27 -37 -67 -50 -87 -26 -40 -24 -59 7 -59 19 0 66 66 99 140 11 25 38
111 60 193 46 166 84 262 172 440 111 221 220 368 409 550 242 235 348 287
579 287 90 0 97 -2 210 -51 131 -57 164 -60 231 -15 42 28 75 79 66 102 -9 24
-40 15 -61 -19 -11 -18 -36 -40 -56 -50 -36 -17 -38 -17 -93 3 -31 12 -63 28
-71 37 -14 13 -13 18 4 42 11 15 64 72 118 128 83 84 112 107 189 146 110 56
239 100 357 122 81 15 101 15 230 1 94 -10 301 -17 617 -21 484 -6 606 -13
695 -41 66 -21 226 -105 233 -122 2 -8 -16 -35 -40 -60 -25 -26 -72 -85 -104
-132 -113 -164 -174 -238 -269 -324 -52 -47 -98 -86 -101 -86 -3 0 -69 34
-147 77 -78 42 -191 103 -252 136 -120 64 -215 127 -399 261 -113 83 -151 99
-151 66 0 -16 203 -173 355 -274 52 -35 184 -110 293 -167 109 -57 212 -115
229 -129 l30 -25 -38 -120 -37 -120 -1 -302 c-1 -166 -4 -304 -8 -308 -4 -4
-48 27 -97 68 -168 141 -300 217 -424 244 -40 9 -144 18 -232 22 l-160 6 -34
65 c-34 63 -35 68 -35 185 -1 66 3 198 8 293 9 169 9 172 -11 172 -25 0 -28
-15 -44 -262 -16 -240 -10 -328 25 -396 15 -29 24 -57 21 -62 -3 -5 -25 -14
-48 -20 -241 -64 -385 -192 -552 -493 -20 -37 -42 -66 -48 -64 -7 2 -17 38
-24 80 -29 173 -67 233 -273 437 -138 136 -161 164 -193 230 -21 43 -44 115
-55 170 -18 88 -21 95 -44 98 -44 5 -49 -15 -29 -114 36 -174 82 -255 222
-389 219 -211 255 -259 289 -393 42 -164 -27 -388 -147 -476 -118 -87 -236
-110 -583 -111 l-265 -1 0 -29 c0 -40 13 -42 280 -44 325 -1 471 27 607 119
89 60 157 151 303 405 123 214 167 277 252 354 132 122 264 165 503 164 242 0
331 -24 499 -137 118 -80 228 -179 269 -243 51 -80 57 -121 37 -278 -11 -83
-16 -175 -13 -238 4 -92 8 -112 46 -205 23 -56 42 -115 42 -130 0 -15 -14 -98
-32 -185 -28 -137 -31 -159 -18 -168 8 -5 24 -8 35 -7 17 3 24 21 47 123 15
66 32 154 38 195 l12 75 -47 110 c-59 136 -66 211 -40 395 11 78 15 145 11
188 -4 37 -9 234 -12 438 -6 350 -5 376 14 451 38 152 57 183 166 282 109 100
167 169 291 348 l85 121 107 58 c152 81 293 177 293 200 0 6 -9 19 -19 28 -19
17 -24 15 -133 -57 -62 -41 -120 -77 -129 -80 -19 -6 -77 26 -86 49 -3 9 11
73 33 142 30 98 47 137 78 176 100 128 187 187 404 277 102 42 125 60 104 81
-24 24 -322 -112 -431 -197 -66 -52 -74 -56 -88 -42 -15 14 -14 18 2 44 47 72
142 178 189 208 142 95 331 124 510 78z m-1215 -37 c10 -26 48 -36 135 -36 69
0 126 -31 192 -103 66 -73 154 -199 154 -222 0 -8 -11 -32 -24 -53 -14 -20
-41 -90 -61 -154 -42 -133 -43 -134 -123 -94 -139 69 -204 76 -805 84 -487 7
-509 8 -523 27 -22 29 -18 127 8 186 19 46 20 52 5 66 -14 14 -18 11 -43 -26
-23 -36 -28 -56 -33 -134 l-6 -92 -150 -1 c-134 0 -160 -3 -239 -28 -246 -75
-356 -138 -502 -286 -60 -61 -118 -116 -129 -123 -11 -6 -97 -14 -191 -17
-172 -7 -172 -7 -245 -44 -172 -85 -421 -312 -593 -540 -68 -91 -157 -249
-226 -404 -29 -64 -58 -123 -65 -130 -6 -7 -72 -21 -146 -32 -170 -24 -336
-63 -411 -97 -155 -69 -447 -491 -494 -713 -20 -96 -13 -200 21 -284 14 -34
25 -69 25 -77 0 -8 -16 -24 -36 -37 -19 -13 -49 -43 -66 -67 -18 -25 -38 -45
-45 -45 -23 0 -64 103 -70 178 -11 134 41 299 160 509 30 54 72 143 92 198 54
148 165 368 235 467 78 110 193 225 284 285 38 26 131 103 205 172 75 69 146
134 157 143 11 10 54 27 95 37 170 44 170 44 381 257 188 191 338 322 446 392
142 90 347 182 407 182 25 0 47 14 101 61 257 229 622 421 967 510 199 51 281
61 557 66 146 2 297 1 336 -4 64 -8 78 -6 150 18 98 34 102 34 113 5z m3817
-432 c266 -113 413 -168 572 -213 170 -49 277 -91 432 -173 241 -126 436 -279
475 -372 20 -46 31 -151 18 -159 -6 -4 -44 5 -84 19 -41 14 -140 38 -220 54
-80 16 -169 38 -197 48 -29 11 -132 67 -230 125 -214 126 -273 157 -375 190
-227 76 -550 84 -884 21 -76 -14 -158 -28 -182 -31 -51 -7 -50 -20 -6 132 15
50 36 122 47 160 16 56 28 78 62 110 87 82 291 180 357 170 19 -2 116 -39 215
-81z m-6296 -243 c0 -6 -48 -38 -106 -73 -157 -93 -296 -210 -517 -434 -175
-178 -205 -203 -249 -218 -107 -34 -104 -17 22 118 270 290 547 506 754 587
76 30 96 34 96 20z m4620 -66 c41 -3 90 -8 108 -12 68 -12 64 -15 -377 -260
-238 -132 -251 -134 -149 -18 34 39 104 123 155 188 l94 118 47 -5 c26 -3 81
-8 122 -11z m-6484 -2711 c38 -30 104 -76 147 -101 42 -24 77 -49 77 -54 0 -5
-25 -39 -55 -74 -66 -78 -81 -106 -100 -187 -19 -83 -19 -291 0 -404 29 -165
146 -354 340 -550 130 -130 202 -172 355 -204 52 -11 105 -22 118 -25 45 -11
22 -35 -80 -84 -118 -55 -155 -69 -228 -80 -49 -8 -149 -2 -233 14 -29 6 -35
4 -40 -15 -7 -28 21 -39 139 -52 125 -14 204 3 376 82 73 34 156 71 185 82
l52 20 77 -46 c43 -25 120 -62 171 -83 89 -35 96 -40 137 -97 24 -34 73 -93
110 -132 36 -40 66 -80 66 -90 0 -24 -65 -83 -129 -118 -34 -18 -74 -30 -113
-33 -39 -4 -62 -11 -65 -20 -9 -22 16 -33 73 -33 67 0 156 44 233 116 32 30
66 54 75 54 22 0 144 -70 150 -87 6 -15 -40 -408 -49 -423 -9 -15 -24 -13
-199 26 -467 103 -810 258 -1081 486 -208 176 -331 373 -395 634 -15 61 -31
118 -35 125 -5 8 -35 43 -67 79 -95 106 -183 236 -253 375 -90 180 -110 256
-110 420 1 148 18 213 84 320 21 33 48 81 60 107 26 55 82 108 115 108 12 0
53 -25 92 -56z m1635 -1880 c24 -8 93 -28 153 -44 60 -16 114 -34 120 -40 16
-16 -43 -130 -67 -130 -53 0 -297 181 -297 221 0 14 43 11 91 -7z m10272
-1688 c48 -52 91 -106 96 -120 6 -13 13 -58 16 -98 l7 -73 -60 -90 c-111 -167
-213 -272 -364 -375 -106 -73 -110 -71 -81 53 17 75 20 157 13 342 -6 127 -13
109 112 287 91 130 139 181 161 172 7 -2 52 -47 100 -98z m-5718 -851 c22 -55
87 -189 143 -298 57 -109 110 -217 118 -240 8 -23 26 -118 40 -212 13 -93 29
-186 35 -205 26 -80 74 -153 149 -223 111 -105 409 -304 654 -438 124 -68 125
-69 141 -162 3 -22 49 -161 101 -310 139 -395 162 -496 133 -560 -14 -31 -41
-43 -125 -58 -99 -17 -171 -7 -258 36 -168 83 -267 210 -398 510 -96 219 -325
649 -571 1070 -181 312 -199 337 -285 400 -100 75 -230 207 -315 320 -80 108
-210 345 -205 376 4 26 41 41 157 64 117 24 216 33 336 31 l109 -1 41 -100z
m285 91 c69 -8 175 -17 235 -21 99 -6 128 -12 286 -66 97 -32 185 -59 195 -59
11 1 -32 17 -95 36 -62 19 -129 41 -147 49 -33 13 -43 28 -26 39 4 2 105 10
223 16 240 14 405 6 624 -31 66 -11 136 -23 155 -26 19 -3 44 -10 54 -16 36
-18 -6 -25 -109 -17 -284 23 -340 20 -96 -4 79 -8 149 -20 154 -25 6 -6 9 -12
6 -13 -2 -1 -92 -5 -199 -8 -186 -6 -180 -6 125 -8 176 -1 382 -7 458 -12 112
-8 142 -7 160 4 39 23 297 49 416 42 146 -10 253 -25 273 -39 9 -7 49 -37 90
-68 40 -31 109 -77 153 -102 44 -25 130 -73 190 -107 61 -34 135 -80 165 -103
30 -22 46 -30 35 -18 -30 35 -115 89 -265 170 -126 68 -295 174 -306 193 -3 5
-4 15 -1 22 4 10 19 11 67 4 70 -9 299 -109 393 -172 110 -73 352 -334 446
-482 46 -71 114 -200 127 -239 4 -12 8 -15 11 -7 6 16 -96 209 -152 287 -50
70 -243 291 -306 351 -72 68 -137 113 -233 161 -97 48 -129 70 -120 84 3 5 50
9 106 9 81 0 105 -4 126 -18 15 -10 62 -38 106 -62 165 -90 313 -223 387 -349
20 -33 46 -99 59 -146 13 -47 25 -83 27 -81 3 3 -7 46 -22 96 -53 186 -201
350 -437 487 -115 66 -116 78 -7 75 124 -5 146 -13 254 -94 165 -124 245 -219
301 -356 13 -32 24 -50 24 -42 0 28 -66 153 -115 218 -26 34 -86 95 -134 134
-47 39 -86 76 -86 82 0 13 59 11 115 -4 31 -8 58 -32 137 -120 120 -134 171
-223 183 -317 l9 -68 -3 68 c-5 93 -43 166 -156 297 -49 58 -90 111 -90 118 0
8 17 12 50 12 59 0 65 -4 160 -137 56 -78 136 -229 155 -290 5 -17 -3 -33 -36
-68 -44 -48 -65 -56 -72 -27 -3 9 -6 -5 -7 -33 -4 -109 -52 -168 -66 -80 -3
25 -8 44 -11 41 -3 -2 1 -39 7 -81 10 -66 9 -82 -5 -118 -24 -61 -130 -235
-174 -287 l-39 -44 -133 56 c-138 58 -267 103 -274 96 -3 -2 35 -17 83 -32
130 -43 282 -115 282 -136 0 -19 -30 -49 -78 -78 l-34 -20 -86 40 c-48 22
-111 61 -141 87 -96 83 -127 104 -61 41 75 -70 148 -121 203 -141 67 -24 71
-46 16 -75 -36 -18 -32 -19 -283 78 -160 62 -497 163 -519 155 -5 -1 69 -24
165 -49 146 -40 499 -166 547 -197 27 -17 3 -38 -89 -76 l-92 -39 -81 27 c-44
15 -83 25 -85 23 -2 -2 19 -12 47 -21 90 -30 79 -50 -46 -88 -49 -15 -133 -33
-188 -41 -55 -9 -145 -22 -200 -31 -55 -8 -129 -16 -165 -17 -42 -1 -51 -3
-25 -5 22 -2 51 -6 64 -9 47 -10 -1 -31 -111 -48 -131 -20 -304 -20 -463 -1
-66 8 -197 15 -291 15 -94 0 -197 5 -230 10 -97 17 -243 50 -339 77 -199 55
-699 355 -888 532 -114 107 -137 161 -172 398 -13 89 -27 173 -30 186 -4 14
-2 28 5 32 11 7 23 0 104 -65 27 -21 58 -41 68 -43 29 -8 21 1 -19 22 -43 22
-178 142 -194 173 -20 38 4 39 156 8 81 -16 155 -29 164 -29 9 1 -67 18 -169
39 l-185 37 -23 41 c-13 23 -20 47 -16 53 12 20 162 2 399 -46 121 -25 227
-45 235 -44 38 2 -456 99 -535 105 -49 4 -100 11 -112 15 -25 9 -92 133 -80
145 4 4 73 -13 155 -39 206 -65 481 -129 545 -126 12 0 -32 11 -98 23 -172 33
-320 72 -470 124 -151 52 -170 63 -184 105 -12 33 -8 42 24 50 17 4 16 5 -4 6
-26 1 -61 27 -61 46 0 39 58 43 260 21z m1724 -122 c22 -8 10 -24 -19 -24 -25
0 -39 12 -28 24 8 8 27 8 47 0z m2398 -154 c9 -19 28 -78 43 -130 25 -90 26
-99 13 -160 -10 -52 -17 -65 -32 -65 -13 0 -24 14 -37 46 -22 59 -66 131 -142
237 -35 48 -56 87 -51 92 14 13 52 18 124 16 64 -1 65 -2 82 -36z"/>
<path d="M8438 9127 c-59 -52 -138 -149 -165 -200 -28 -57 -32 -110 -13 -217
21 -124 4 -218 -73 -395 -30 -70 -136 -254 -165 -288 -8 -9 -80 -38 -159 -63
-142 -45 -151 -51 -137 -88 9 -23 33 -20 168 20 206 62 238 82 481 307 126
116 180 150 277 171 156 35 410 27 508 -15 68 -29 159 -102 230 -183 176 -204
298 -546 317 -895 6 -102 9 -116 32 -144 33 -39 94 -66 170 -73 l61 -7 0 35
c0 35 -1 36 -47 43 -75 11 -131 39 -139 70 -4 14 -3 35 2 45 5 10 59 55 119
99 91 68 124 86 193 107 66 20 82 29 82 45 0 25 -38 25 -123 -1 -46 -14 -94
-41 -162 -91 -63 -47 -100 -68 -106 -62 -6 6 -17 54 -25 108 -73 487 -314 877
-609 987 -55 20 -78 23 -260 23 -223 0 -268 -7 -382 -61 -57 -27 -97 -58 -197
-154 -114 -110 -146 -134 -146 -112 0 4 25 63 56 131 30 68 65 160 76 204 21
82 21 115 2 319 -8 88 10 125 121 246 48 52 84 99 82 105 -7 22 -32 17 -69
-16z"/>
<path d="M5247 5262 c-10 -10 -17 -23 -17 -28 0 -13 93 -104 106 -104 6 0 19
9 29 19 17 19 15 22 -35 75 -29 31 -56 56 -60 56 -4 0 -14 -8 -23 -18z"/>
<path d="M6652 4723 c-4 -10 -7 -74 -7 -143 0 -143 7 -165 96 -282 48 -64 78
-83 94 -58 3 5 -23 50 -58 99 -80 111 -92 154 -84 298 6 98 5 103 -14 103 -11
0 -23 -8 -27 -17z"/>
<path d="M3096 3681 c-4 -5 58 -54 136 -109 79 -55 185 -132 237 -171 52 -39
99 -71 104 -71 37 0 -100 114 -297 248 -153 104 -173 115 -180 103z"/>
<path d="M7758 2823 c7 -3 16 -2 19 1 4 3 -2 6 -13 5 -11 0 -14 -3 -6 -6z"/>
<path d="M7843 2813 c9 -2 25 -2 35 0 9 3 1 5 -18 5 -19 0 -27 -2 -17 -5z"/>
<path d="M7938 2803 c12 -2 32 -2 45 0 12 2 2 4 -23 4 -25 0 -35 -2 -22 -4z"/>
<path d="M6735 2795 c6 -3 161 -40 345 -84 378 -90 570 -128 680 -136 67 -4
64 -3 -30 10 -152 22 -307 55 -662 140 -266 63 -379 87 -333 70z"/>
<path d="M7648 2723 c7 -3 16 -2 19 1 4 3 -2 6 -13 5 -11 0 -14 -3 -6 -6z"/>
<path d="M7688 2713 c7 -3 16 -2 19 1 4 3 -2 6 -13 5 -11 0 -14 -3 -6 -6z"/>
<path d="M7728 2703 c6 -2 18 -2 25 0 6 3 1 5 -13 5 -14 0 -19 -2 -12 -5z"/>
<path d="M7778 2693 c6 -2 18 -2 25 0 6 3 1 5 -13 5 -14 0 -19 -2 -12 -5z"/>
<path d="M7865 2680 c40 -9 122 -13 114 -6 -2 2 -38 6 -79 9 -56 4 -65 3 -35
-3z"/>
<path d="M9095 2675 c28 -7 61 -13 75 -13 14 0 -2 6 -35 14 -76 17 -107 16
-40 -1z"/>
<path d="M8063 2663 c26 -2 67 -2 90 0 23 2 2 3 -48 3 -49 0 -68 -1 -42 -3z"/>
<path d="M8328 2653 c18 -2 45 -2 60 0 15 2 0 4 -33 4 -33 0 -45 -2 -27 -4z"/>
<path d="M9208 2653 c7 -3 16 -2 19 1 4 3 -2 6 -13 5 -11 0 -14 -3 -6 -6z"/>
<path d="M9305 2629 c39 -10 74 -17 80 -16 11 4 -118 37 -137 36 -7 0 19 -9
57 -20z"/>
<path d="M9480 2576 c122 -47 195 -86 285 -153 82 -61 337 -321 329 -335 -7
-10 -167 -10 -220 1 -32 6 -69 31 -160 108 -231 194 -272 214 -723 337 -195
53 -230 62 -220 52 3 -3 105 -32 227 -66 388 -106 479 -145 634 -269 101 -80
138 -116 138 -135 0 -10 -8 -16 -22 -16 -51 0 -4 -10 92 -19 138 -13 352 -22
319 -13 -14 4 -75 59 -136 124 -116 122 -200 202 -268 255 -48 36 -208 118
-284 144 -89 31 -83 21 9 -15z"/>
<path d="M8518 2573 c6 -2 18 -2 25 0 6 3 1 5 -13 5 -14 0 -19 -2 -12 -5z"/>
<path d="M8088 2563 c17 -2 47 -2 65 0 17 2 3 4 -33 4 -36 0 -50 -2 -32 -4z"/>
<path d="M8385 2520 l-40 -7 35 -1 c19 0 55 3 80 7 l45 8 -40 0 c-22 0 -58 -3
-80 -7z"/>
<path d="M8288 2503 c12 -2 30 -2 40 0 9 3 -1 5 -23 4 -22 0 -30 -2 -17 -4z"/>
<path d="M7478 2493 c12 -2 30 -2 40 0 9 3 -1 5 -23 4 -22 0 -30 -2 -17 -4z"/>
<path d="M8208 2493 c12 -2 30 -2 40 0 9 3 -1 5 -23 4 -22 0 -30 -2 -17 -4z"/>
<path d="M7558 2483 c12 -2 32 -2 45 0 12 2 2 4 -23 4 -25 0 -35 -2 -22 -4z"/>
<path d="M8118 2483 c12 -2 32 -2 45 0 12 2 2 4 -23 4 -25 0 -35 -2 -22 -4z"/>
<path d="M7766 2468 c78 -5 184 -5 235 -1 75 6 47 8 -141 8 -228 1 -231 1 -94
-7z"/>
<path d="M8395 2453 c-55 -13 -145 -35 -200 -48 -55 -13 -89 -24 -76 -24 26
-1 401 88 401 95 0 7 -20 3 -125 -23z"/>
<path d="M8827 2414 c-15 -8 -60 -24 -100 -34 -40 -10 -62 -19 -51 -19 27 -1
140 34 174 54 33 19 13 18 -23 -1z"/>
<path d="M7515 2389 c22 -4 51 -8 65 -7 16 0 11 3 -15 9 -22 4 -51 8 -65 7
-16 0 -11 -3 15 -9z"/>
<path d="M7633 2373 c15 -2 39 -2 55 0 15 2 2 4 -28 4 -30 0 -43 -2 -27 -4z"/>
<path d="M8033 2373 c9 -2 25 -2 35 0 9 3 1 5 -18 5 -19 0 -27 -2 -17 -5z"/>
<path d="M7808 2363 c34 -2 88 -2 120 0 31 2 3 3 -63 3 -66 0 -92 -1 -57 -3z"/>
<path d="M8560 2350 c-27 -6 -29 -8 -10 -8 14 -1 43 3 65 7 33 7 35 9 10 9
-16 -1 -46 -4 -65 -8z"/>
<path d="M8473 2333 c9 -2 25 -2 35 0 9 3 1 5 -18 5 -19 0 -27 -2 -17 -5z"/>
<path d="M8398 2323 c12 -2 30 -2 40 0 9 3 -1 5 -23 4 -22 0 -30 -2 -17 -4z"/>
<path d="M7305 2305 c121 -22 307 -35 482 -33 l168 1 -230 8 c-126 4 -282 14
-345 23 -135 19 -174 19 -75 1z"/>
<path d="M8323 2313 c9 -2 25 -2 35 0 9 3 1 5 -18 5 -19 0 -27 -2 -17 -5z"/>
<path d="M8238 2303 c12 -2 30 -2 40 0 9 3 -1 5 -23 4 -22 0 -30 -2 -17 -4z"/>
<path d="M8138 2293 c12 -2 32 -2 45 0 12 2 2 4 -23 4 -25 0 -35 -2 -22 -4z"/>
<path d="M7993 2283 c20 -2 54 -2 75 0 20 2 3 4 -38 4 -41 0 -58 -2 -37 -4z"/>
<path d="M10285 2260 c10 -11 20 -20 23 -20 3 0 -3 9 -13 20 -10 11 -20 20
-23 20 -3 0 3 -9 13 -20z"/>
<path d="M8842 2233 c37 -2 100 -2 140 0 40 1 10 3 -67 3 -77 0 -110 -1 -73
-3z"/>
<path d="M8708 2223 c12 -2 30 -2 40 0 9 3 -1 5 -23 4 -22 0 -30 -2 -17 -4z"/>
<path d="M9061 2226 c2 -2 31 -6 64 -9 39 -4 50 -3 30 2 -31 9 -102 14 -94 7z"/>
<path d="M8633 2213 c9 -2 23 -2 30 0 6 3 -1 5 -18 5 -16 0 -22 -2 -12 -5z"/>
<path d="M10348 2185 c17 -22 64 -101 107 -175 42 -74 81 -139 87 -145 6 -5 2
6 -8 25 -117 208 -153 267 -182 298 l-33 37 29 -40z"/>
<path d="M8372 2177 c-101 -18 -178 -33 -172 -35 5 -2 56 4 112 13 89 15 114
16 188 5 134 -19 269 -47 486 -100 226 -55 353 -80 393 -79 14 0 -19 9 -74 19
-55 10 -205 44 -333 75 -129 31 -277 64 -330 73 -72 13 -97 21 -97 32 0 8 13
18 30 21 88 19 -40 4 -203 -24z"/>
<path d="M9245 2194 c33 -7 67 -13 75 -12 23 1 -82 26 -110 26 -14 0 2 -6 35
-14z"/>
<path d="M10812 2180 c-1 -8 5 -42 12 -75 8 -33 14 -49 14 -35 0 28 -25 133
-26 110z"/>
<path d="M9340 2177 c7 -8 334 -77 362 -76 13 0 -51 16 -142 35 -225 48 -226
48 -220 41z"/>
<path d="M7170 2124 c88 -41 269 -61 490 -53 50 1 0 5 -125 10 -202 7 -244 12
-380 53 -11 4 -4 -1 15 -10z"/>
<path d="M8148 2133 c6 -2 18 -2 25 0 6 3 1 5 -13 5 -14 0 -19 -2 -12 -5z"/>
<path d="M8088 2123 c6 -2 18 -2 25 0 6 3 1 5 -13 5 -14 0 -19 -2 -12 -5z"/>
<path d="M8018 2113 c6 -2 18 -2 25 0 6 3 1 5 -13 5 -14 0 -19 -2 -12 -5z"/>
<path d="M7953 2103 c9 -2 25 -2 35 0 9 3 1 5 -18 5 -19 0 -27 -2 -17 -5z"/>
<path d="M7805 2091 c-40 -5 -45 -7 -26 -13 20 -6 22 -9 12 -22 -7 -8 -33 -23
-57 -32 -72 -28 -44 -26 40 2 77 26 79 26 137 10 32 -9 172 -59 310 -112 138
-52 304 -108 368 -125 128 -32 370 -75 471 -83 40 -3 20 2 -50 13 -328 52
-512 98 -711 177 -79 31 -205 78 -279 104 -135 48 -161 67 -110 81 20 6 17 7
-15 6 -22 0 -62 -3 -90 -6z"/>
<path d="M8470 2075 c0 -7 144 -78 224 -110 151 -59 246 -77 441 -80 l180 -3
-180 8 c-143 7 -200 14 -280 35 -95 25 -235 79 -337 131 -27 14 -48 22 -48 19z"/>
<path d="M8271 2055 c10 -9 279 -134 279 -129 0 3 -60 34 -134 70 -120 57
-159 73 -145 59z"/>
<path d="M10701 2014 c0 -11 3 -14 6 -6 3 7 2 16 -1 19 -3 4 -6 -2 -5 -13z"/>
<path d="M7023 1960 c0 -25 2 -35 4 -22 2 12 2 32 0 45 -2 12 -4 2 -4 -23z"/>
<path d="M7121 1944 c1 -32 4 -70 9 -84 4 -14 5 11 2 55 -6 95 -12 113 -11 29z"/>
<path d="M7220 1986 c0 -10 89 -246 99 -263 10 -17 10 -17 11 0 0 9 3 17 6 17
3 0 51 -46 107 -103 112 -114 231 -199 389 -278 106 -53 268 -122 274 -117 2
2 -47 25 -109 51 -229 96 -415 216 -545 352 -96 99 -131 166 -134 249 l-1 61
-6 -49 c-3 -27 -11 -51 -17 -53 -7 -2 -24 27 -40 67 -24 61 -34 81 -34 66z"/>
<path d="M9967 1983 c18 -2 50 -2 70 0 21 2 7 4 -32 4 -38 0 -55 -2 -38 -4z"/>
<path d="M10711 1974 c0 -11 3 -14 6 -6 3 7 2 16 -1 19 -3 4 -6 -2 -5 -13z"/>
<path d="M9553 1973 c71 -2 183 -2 250 0 67 1 10 3 -128 3 -137 0 -192 -2
-122 -3z"/>
<path d="M7420 1943 c0 -19 217 -281 309 -374 146 -146 257 -220 422 -280 83
-30 310 -90 339 -88 8 0 -52 17 -135 38 -233 59 -369 121 -499 226 -53 43 -68
65 -46 65 5 0 37 -18 71 -40 67 -43 215 -95 388 -136 137 -33 350 -74 376 -73
11 0 -25 9 -80 20 -239 46 -453 100 -560 140 -33 12 -108 55 -168 96 -60 41
-119 78 -131 83 -31 11 -88 78 -84 98 3 14 18 17 86 18 46 1 86 4 89 8 4 3
-44 6 -105 6 l-112 0 -80 101 c-44 56 -80 97 -80 92z"/>
<path d="M8600 1893 c0 -2 42 -24 93 -48 88 -41 173 -66 220 -64 12 0 -9 7
-48 15 -38 8 -114 35 -167 58 -54 24 -98 42 -98 39z"/>
<path d="M7030 1886 c0 -10 60 -126 65 -126 3 0 -9 28 -26 63 -33 65 -39 75
-39 63z"/>
<path d="M9413 1873 c48 -2 125 -2 170 0 45 1 6 3 -88 3 -93 0 -130 -2 -82 -3z"/>
<path d="M9793 1863 c26 -2 68 -2 95 0 26 2 4 3 -48 3 -52 0 -74 -1 -47 -3z"/>
<path d="M10010 1850 c79 -10 226 -44 276 -65 20 -8 39 -13 42 -10 15 15 -258
85 -328 84 l-55 -2 65 -7z"/>
<path d="M7140 1822 c0 -40 105 -196 176 -262 37 -34 37 -33 -7 18 -92 111
-111 139 -140 197 -16 33 -29 54 -29 47z"/>
<path d="M9678 1783 c18 -2 45 -2 60 0 15 2 0 4 -33 4 -33 0 -45 -2 -27 -4z"/>
<path d="M9888 1783 c23 -2 61 -2 85 0 23 2 4 4 -43 4 -47 0 -66 -2 -42 -4z"/>
<path d="M9000 1770 c66 -8 477 -13 469 -6 -2 2 -123 5 -269 8 -146 3 -236 2
-200 -2z"/>
<path d="M9533 1773 c15 -2 39 -2 55 0 15 2 2 4 -28 4 -30 0 -43 -2 -27 -4z"/>
<path d="M7868 1733 c18 -2 45 -2 60 0 15 2 0 4 -33 4 -33 0 -45 -2 -27 -4z"/>
<path d="M10158 1733 c7 -3 16 -2 19 1 4 3 -2 6 -13 5 -11 0 -14 -3 -6 -6z"/>
<path d="M8120 1704 c91 -13 174 -23 185 -21 24 3 -288 48 -325 46 -14 0 49
-12 140 -25z"/>
<path d="M10103 1723 c9 -2 23 -2 30 0 6 3 -1 5 -18 5 -16 0 -22 -2 -12 -5z"/>
<path d="M9910 1700 c-69 -10 -111 -18 -95 -19 34 -1 257 28 264 35 7 7 -36 2
-169 -16z"/>
<path d="M7720 1705 c0 -31 760 -266 854 -264 17 0 -18 11 -79 24 -192 40
-571 158 -711 220 -59 26 -64 28 -64 20z"/>
<path d="M9148 1703 c12 -2 30 -2 40 0 9 3 -1 5 -23 4 -22 0 -30 -2 -17 -4z"/>
<path d="M9265 1690 c28 -5 73 -8 100 -8 l50 1 -60 7 c-33 4 -78 8 -100 8 -38
-1 -38 -1 10 -8z"/>
<path d="M7340 1675 c0 -5 14 -35 32 -65 43 -76 156 -186 261 -254 162 -106
461 -236 577 -251 35 -4 30 -1 -25 14 -121 33 -246 83 -370 146 -229 116 -354
217 -433 350 -23 39 -42 66 -42 60z"/>
<path d="M8365 1669 c22 -4 54 -8 70 -7 22 0 19 3 -15 9 -60 10 -108 9 -55 -2z"/>
<path d="M9538 1673 c45 -2 119 -2 165 0 45 1 8 3 -83 3 -91 0 -128 -2 -82 -3z"/>
<path d="M8475 1654 c18 -7 455 -64 483 -63 15 1 -81 16 -213 35 -222 31 -295
38 -270 28z"/>
<path d="M9324 1611 c16 -26 224 -152 376 -228 90 -46 169 -83 175 -83 5 1
-75 44 -180 98 -104 53 -226 122 -270 152 -103 71 -109 75 -101 61z"/>
<path d="M9063 1593 c20 -2 54 -2 75 0 20 2 3 4 -38 4 -41 0 -58 -2 -37 -4z"/>
<path d="M8901 1445 c3 -2 52 -9 109 -14 58 -6 162 -24 232 -41 70 -16 135
-30 145 -29 35 1 -272 69 -357 79 -93 11 -136 13 -129 5z"/>
<path d="M9445 1350 c39 -9 162 -14 154 -6 -2 2 -47 6 -99 9 -66 4 -83 3 -55
-3z"/>
<path d="M8683 1273 c9 -2 23 -2 30 0 6 3 -1 5 -18 5 -16 0 -22 -2 -12 -5z"/>
<path d="M9635 1264 c-22 -8 -78 -21 -125 -29 -69 -11 -77 -13 -40 -14 48 -1
136 19 192 43 43 19 24 19 -27 0z"/>
<path d="M8743 1263 c9 -2 25 -2 35 0 9 3 1 5 -18 5 -19 0 -27 -2 -17 -5z"/>
<path d="M8813 1253 c9 -2 25 -2 35 0 9 3 1 5 -18 5 -19 0 -27 -2 -17 -5z"/>
<path d="M8888 1243 c12 -2 32 -2 45 0 12 2 2 4 -23 4 -25 0 -35 -2 -22 -4z"/>
<path d="M8120 1235 c0 -12 366 -115 407 -115 10 1 -49 18 -132 40 -82 21
-177 48 -209 59 -64 23 -66 23 -66 16z"/>
<path d="M9020 1230 c70 -8 196 -12 189 -6 -2 2 -60 6 -129 9 -85 3 -104 2
-60 -3z"/>
<path d="M9660 1189 c-96 -29 -270 -57 -400 -65 -127 -7 -305 6 -497 37 -126
20 -149 22 -142 15 2 -2 81 -16 174 -30 217 -33 218 -34 211 -51 -4 -12 7 -15
58 -15 34 0 112 -2 172 -5 60 -2 94 -1 75 3 -19 4 -36 12 -38 19 -5 13 5 15
152 33 92 11 277 54 305 70 23 14 2 11 -70 -11z"/>
<path d="M8528 1193 c6 -2 18 -2 25 0 6 3 1 5 -13 5 -14 0 -19 -2 -12 -5z"/>
<path d="M8578 1183 c6 -2 18 -2 25 0 6 3 1 5 -13 5 -14 0 -19 -2 -12 -5z"/>
<path d="M8575 1110 c17 -4 41 -8 55 -8 22 0 22 1 -5 8 -16 4 -41 8 -55 8 -22
0 -22 -1 5 -8z"/>
<path d="M8695 1090 c39 -9 152 -14 144 -6 -2 2 -44 6 -94 9 -64 4 -78 3 -50
-3z"/>
</g>
</svg>
